<?xml version="1.0" encoding="UTF-8" standalone="no"?>
<svg
   xmlns:dc="http://purl.org/dc/elements/1.1/"
   xmlns:cc="http://creativecommons.org/ns#"
   xmlns:rdf="http://www.w3.org/1999/02/22-rdf-syntax-ns#"
   xmlns:svg="http://www.w3.org/2000/svg"
   xmlns="http://www.w3.org/2000/svg"
   xmlns:sodipodi="http://sodipodi.sourceforge.net/DTD/sodipodi-0.dtd"
   xmlns:inkscape="http://www.inkscape.org/namespaces/inkscape"
   width="166.66667"
   height="166.59334"
   viewBox="0 0 500.00002 499.78001"
   version="1.1"
   id="svg3829"
   sodipodi:docname="pisi_logo.svg"
   inkscape:version="0.92.4 (5da689c313, 2019-01-14)">
  <metadata
     id="metadata3835">
    <rdf:RDF>
      <cc:Work
         rdf:about="">
        <dc:format>image/svg+xml</dc:format>
        <dc:type
           rdf:resource="http://purl.org/dc/dcmitype/StillImage" />
        <dc:title></dc:title>
      </cc:Work>
    </rdf:RDF>
  </metadata>
  <defs
     id="defs3833" />
  <sodipodi:namedview
     pagecolor="#ffffff"
     bordercolor="#666666"
     borderopacity="1"
     objecttolerance="10"
     gridtolerance="10"
     guidetolerance="10"
     inkscape:pageopacity="0"
     inkscape:pageshadow="2"
     inkscape:window-width="1920"
     inkscape:window-height="1027"
     id="namedview3831"
     showgrid="false"
     units="px"
     scale-x="3"
     fit-margin-top="0"
     fit-margin-left="0"
     fit-margin-right="0"
     fit-margin-bottom="0"
     inkscape:zoom="1.266"
     inkscape:cx="333.33333"
     inkscape:cy="-166.63272"
     inkscape:window-x="0"
     inkscape:window-y="0"
     inkscape:window-maximized="1"
     inkscape:current-layer="svg3829" />
  <g
     id="#d9005bff"
     transform="translate(0,-0.22)">
    <path
       d="m 21.91,8.91 c 0.92,-2.77 0.84,-6.26 2.57,-8.55 23.65,3.44 47.06,9.33 68.95,19.06 23.19,10.05 44.61,24.39 62.33,42.44 -34.64,25.06 -62.68,58.15 -86.56,93.37 -12.2,17.83 -22.76,36.7 -33.18,55.6 -2.31,-4.22 -5.08,-8.2 -7.01,-12.63 C 13.76,166.51 10.54,130.63 11.35,95.92 11.7,66.64 16.01,37.56 21.91,8.91 Z"
       id="path3794"
       inkscape:connector-curvature="0"
       style="opacity:1;fill:#d9005b" />
    <path
       d="M 344.69,62.07 C 379.51,26.18 428.21,6.31 477.26,0.22 c 2.16,11 4.85,21.9 6.59,32.99 6.41,42.15 9.13,85.58 0.59,127.65 -3.95,17.82 -10.21,35.31 -20.23,50.66 -1.69,-1.74 -2.49,-4.05 -3.59,-6.15 C 445.36,176.9 428.03,149.46 407.84,124.22 389.47,101 368.51,79.71 344.69,62.07 Z"
       id="path3796"
       inkscape:connector-curvature="0"
       style="opacity:1;fill:#d9005b" />
    <path
       d="m 162.16,385.04 c 2.61,-2 5.8,1.66 4.97,4.33 -0.82,2.56 -3.44,3.78 -5.38,5.38 -17.04,13.35 -34.26,26.46 -51.19,39.94 -1.01,0.8 -2.05,1.56 -3.09,2.33 -24.27,18.82 -48.48,37.71 -72.77,56.51 -1.64,1.08 -3.28,3.31 -5.49,2.24 -2.18,-1.14 -2.25,-3.95 -1.55,-6.01 1.93,-2.16 4.4,-3.76 6.67,-5.52 22.14,-17.17 44.22,-34.4 66.36,-51.55 1.02,-0.81 2,-1.68 3.05,-2.44 19.58,-14.9 38.84,-30.28 58.42,-45.21 z"
       id="path3798"
       inkscape:connector-curvature="0"
       style="opacity:1;fill:#d9005b" />
    <path
       d="m 331.47,391.49 c -3.08,-2.63 0.37,-9.33 4.21,-6.2 19.75,15.19 39.29,30.65 59.09,45.79 1.08,0.85 2.16,1.72 3.25,2.57 23.51,18.26 47.02,36.51 70.5,54.8 3.82,2.07 1.08,9.44 -3.08,7.12 -24.81,-19.11 -49.48,-38.42 -74.23,-57.62 -1.1,-0.84 -2.2,-1.68 -3.28,-2.53 -18.74,-14.74 -37.64,-29.3 -56.46,-43.93 z"
       id="path3800"
       inkscape:connector-curvature="0"
       style="opacity:1;fill:#d9005b" />
    <path
       d="m 189.81,390.78 c 1.55,-1.03 3.03,-3.22 5.14,-2.18 2.83,1.48 2.88,5.91 0.1,7.47 -21.48,16.92 -43.18,33.56 -64.72,50.42 -1.02,0.84 -2.05,1.68 -3.09,2.52 C 105.28,465.92 83.46,483 61.57,500 h -2.22 c -2.46,-1.52 -3.11,-5.39 -0.78,-7.29 20.18,-15.78 40.5,-31.38 60.63,-47.21 1.31,-1.09 2.68,-2.11 4.08,-3.08 22.22,-17.15 44.33,-34.46 66.53,-51.64 z"
       id="path3802"
       inkscape:connector-curvature="0"
       style="opacity:1;fill:#d9005b" />
    <path
       d="m 302.11,395.87 c -2.75,-1.7 -2.27,-6.42 0.82,-7.45 2.13,-0.5 3.5,1.64 5.08,2.67 22.49,17.31 44.76,34.92 67.31,52.15 1.05,0.77 2.12,1.57 3.14,2.41 19.94,15.73 40.12,31.16 60.1,46.83 2.57,1.83 2.06,5.9 -0.49,7.52 h -2.05 c -21.73,-16.62 -43.18,-33.63 -64.88,-50.29 -1.19,-0.89 -2.32,-1.86 -3.45,-2.81 -21.86,-17.01 -43.76,-33.97 -65.58,-51.03 z"
       id="path3804"
       inkscape:connector-curvature="0"
       style="opacity:1;fill:#d9005b" />
  </g>
  <g
     id="#333333ff"
     transform="translate(0,-0.22)">
    <path
       d="m 224.63,30.4 c 12.61,-2.62 25.57,-2.51 38.36,-1.83 29.8,3 57.5,16.4 81.7,33.5 23.82,17.64 44.78,38.93 63.15,62.15 20.19,25.24 37.52,52.68 52.78,81.15 1.1,2.1 1.9,4.41 3.59,6.15 2.75,3.93 4.54,8.44 6.66,12.73 11.47,22.95 21,46.83 29.13,71.16 v 0.97 c -5.5,15.71 -11.58,31.27 -19.77,45.8 -19.61,36.48 -48.29,67.8 -82.21,91.47 -1.09,-0.85 -2.17,-1.72 -3.25,-2.57 47.3,-32.24 83.81,-80.39 100.97,-135.09 -2.78,-10.91 -7.37,-21.25 -11.2,-31.82 C 462.33,209.85 432.65,158.24 394.32,113.66 376.88,93.74 357.52,75.29 335.44,60.57 312.88,45.39 286.95,34.32 259.62,32.28 l -0.75,0.31 c -2.91,43.43 -7.42,86.79 -10.49,130.21 -1.56,0.16 -3.12,0.31 -4.68,0.48 -11.32,-41.71 -22.21,-83.54 -33.69,-125.21 -1.77,0.61 -3.53,1.24 -5.29,1.89 2.73,14.04 4.9,28.18 7.77,42.21 2.75,13.58 4.78,27.29 7.53,40.88 3.31,16.3 5.83,32.73 9.09,49.04 -1.42,0.59 -2.84,1.16 -4.26,1.72 -22.56,-35.95 -45.3,-71.79 -67.77,-107.79 -13.15,8.93 -24.8,19.9 -36.1,31.04 -41.61,42.98 -73.37,94.67 -97.88,149.02 -6.79,15.53 -12.96,31.33 -18.35,47.4 -1.18,2.63 0.26,5.29 1.06,7.79 10.23,28.99 25.3,56.34 44.97,80 15.22,18.75 33.4,34.92 52.96,48.98 -1.05,0.76 -2.03,1.63 -3.05,2.44 C 53.34,399.72 17.23,350.91 0,295.8 v -0.45 C 2.24,289.91 3.74,284.22 5.74,278.7 14.44,255.5 24.21,232.63 36.02,210.83 46.44,191.93 57,173.06 69.2,155.23 93.08,120.01 121.12,86.92 155.76,61.86 176.41,47.09 199.62,35.44 224.63,30.4 Z"
       id="path3807"
       inkscape:connector-curvature="0"
       style="opacity:1;fill:#333333" />
    <path
       d="m 107.16,252.9 c 12.79,-3.97 26.4,-5.21 39.72,-3.96 15.69,1.2 31.86,7.93 41.19,21.09 8.1,11.15 11.22,25.32 10.76,38.93 0.28,11.09 -1.69,22.07 -4.05,32.86 -18.34,4.26 -38.31,3.99 -55.83,-3.42 -14.38,-5.86 -25.76,-18.47 -30.25,-33.32 -5.73,-16.82 -4.33,-34.94 -1.54,-52.18 M 127,263.41 c -2.39,0.24 -4.94,-0.03 -7.12,1.19 -1.9,14.94 -1.83,31.03 5.9,44.5 6.8,12.29 20.76,18.98 34.28,20.46 7.4,1.2 15.04,0.89 22.46,0.13 1.79,-7.21 2.03,-14.83 2.26,-22.3 -8.92,9.43 -25.91,8.98 -34.48,-0.74 -5.95,-6.03 -8.41,-15.33 -5.92,-23.46 2.04,-7.76 8.33,-13.82 15.68,-16.72 -1.62,-1.94 -5.09,-1.41 -7.39,-2.38 -8.4,-1.75 -17.16,-1.82 -25.67,-0.68 z"
       id="path3809"
       inkscape:connector-curvature="0"
       style="opacity:1;fill:#333333" />
    <path
       d="m 323.37,257.62 c 9.79,-5.9 21.15,-8.94 32.54,-9.2 11.91,-0.32 24.18,0.39 35.43,4.43 2.84,17.16 4.13,35.27 -1.57,52 -4.39,14.73 -15.67,27.15 -29.79,33.14 -14.32,6.32 -30.45,7.32 -45.83,5.58 -3.47,-0.62 -7.2,-0.88 -10.44,-2.11 -4.21,-19.07 -6.96,-39.64 -0.18,-58.45 3.44,-10.43 10.65,-19.45 19.84,-25.39 m 14.79,7.88 c 0.06,0.21 0.2,0.62 0.27,0.83 6.43,2.39 11.93,7.35 14.67,13.67 2.14,4.64 1.89,9.94 1.37,14.91 -2.26,10.63 -12.42,19.29 -23.45,18.94 -6.41,0.41 -12.7,-2.14 -17.36,-6.48 -0.21,7.41 1.02,14.71 1.95,22.03 6.12,0.42 12.27,1.46 18.38,0.34 10.36,-0.3 20.58,-3.75 29.05,-9.73 9.69,-7.41 14.76,-19.46 16.03,-31.33 0.92,-8.26 0.61,-16.69 -0.76,-24.89 -5.45,-0.14 -10.78,-1.45 -16.25,-1.36 -8.11,-0.39 -16.08,1.36 -23.9,3.07 z"
       id="path3811"
       inkscape:connector-curvature="0"
       style="opacity:1;fill:#333333" />
    <path
       d="m 207.32,374.63 c 16.7,-5.11 34.24,-6.59 51.65,-5.91 12.33,0.69 24.68,2.26 36.53,5.99 0.54,1.04 -0.82,1.79 -1.21,2.63 -10.53,12.78 -21.26,25.42 -31.82,38.17 -2.34,2.69 -5.74,3.8 -8.91,5.07 0.25,7.36 0.02,14.74 0.13,22.11 -1.56,0.78 -3.76,1 -4.96,-0.49 0.09,-7.3 0.04,-14.6 0.02,-21.89 -3.08,-0.94 -6.26,-2.06 -8.39,-4.63 -10.53,-12.22 -20.75,-24.7 -31.1,-37.07 -0.71,-1.26 -2.57,-2.36 -1.94,-3.98 z"
       id="path3813"
       inkscape:connector-curvature="0"
       style="opacity:1;fill:#333333" />
    <path
       d="m 107.47,437.02 c 1.04,-0.77 2.08,-1.53 3.09,-2.33 4.34,2.39 8.45,5.21 12.72,7.73 -1.4,0.97 -2.77,1.99 -4.08,3.08 l 0.75,-0.77 c -4.31,-2.32 -8.55,-4.8 -12.48,-7.71 z"
       id="path3815"
       inkscape:connector-curvature="0"
       style="opacity:1;fill:#333333" />
    <path
       d="m 375.32,443.24 c 4.17,-2.65 8.51,-5.04 12.61,-7.82 1.08,0.85 2.18,1.69 3.28,2.53 -4.05,2.89 -8.41,5.28 -12.75,7.7 -1.02,-0.84 -2.09,-1.64 -3.14,-2.41 z"
       id="path3817"
       inkscape:connector-curvature="0"
       style="opacity:1;fill:#333333" />
    <path
       d="m 367.69,446.9 c 1.13,0.95 2.26,1.92 3.45,2.81 -65.5,34.68 -146.07,39.22 -215.08,12.26 -9.94,-3.56 -19.36,-8.33 -28.82,-12.96 1.04,-0.84 2.07,-1.68 3.09,-2.52 l 0.59,-0.1 c 11,5.75 22.4,10.82 34.19,14.75 60.36,21.45 128.77,18.89 187.42,-6.86 5.06,-2.43 10.49,-4.24 15.16,-7.38 z"
       id="path3819"
       inkscape:connector-curvature="0"
       style="opacity:1;fill:#333333" />
  </g>
  <g
     id="#ffffffff"
     transform="translate(0,-0.22)">
    <path
       d="m 248.38,162.8 c 3.07,-43.42 7.58,-86.78 10.49,-130.21 l 0.75,-0.31 c 27.33,2.04 53.26,13.11 75.82,28.29 22.08,14.72 41.44,33.17 58.88,53.09 38.33,44.58 68.01,96.19 90.22,150.51 3.83,10.57 8.42,20.91 11.2,31.82 -17.16,54.7 -53.67,102.85 -100.97,135.09 -19.8,-15.14 -39.34,-30.6 -59.09,-45.79 -3.84,-3.13 -7.29,3.57 -4.21,6.2 18.82,14.63 37.72,29.19 56.46,43.93 -4.1,2.78 -8.44,5.17 -12.61,7.82 -22.55,-17.23 -44.82,-34.84 -67.31,-52.15 -1.58,-1.03 -2.95,-3.17 -5.08,-2.67 -3.09,1.03 -3.57,5.75 -0.82,7.45 21.82,17.06 43.72,34.02 65.58,51.03 -4.67,3.14 -10.1,4.95 -15.16,7.38 -58.65,25.75 -127.06,28.31 -187.42,6.86 -11.79,-3.93 -23.19,-9 -34.19,-14.75 l -0.59,0.1 c 21.54,-16.86 43.24,-33.5 64.72,-50.42 2.78,-1.56 2.73,-5.99 -0.1,-7.47 -2.11,-1.04 -3.59,1.15 -5.14,2.18 -22.2,17.18 -44.31,34.49 -66.53,51.64 -4.27,-2.52 -8.38,-5.34 -12.72,-7.73 16.93,-13.48 34.15,-26.59 51.19,-39.94 1.94,-1.6 4.56,-2.82 5.38,-5.38 0.83,-2.67 -2.36,-6.33 -4.97,-4.33 -19.58,14.93 -38.84,30.31 -58.42,45.21 C 84.18,416.19 66,400.02 50.78,381.27 31.11,357.61 16.04,330.26 5.81,301.27 c -0.8,-2.5 -2.24,-5.16 -1.06,-7.79 5.39,-16.07 11.56,-31.87 18.35,-47.4 24.51,-54.35 56.27,-106.04 97.88,-149.02 11.3,-11.14 22.95,-22.11 36.1,-31.04 22.47,36 45.21,71.84 67.77,107.79 1.42,-0.56 2.84,-1.13 4.26,-1.72 -3.26,-16.31 -5.78,-32.74 -9.09,-49.04 -2.75,-13.59 -4.78,-27.3 -7.53,-40.88 -2.87,-14.03 -5.04,-28.17 -7.77,-42.21 1.76,-0.65 3.52,-1.28 5.29,-1.89 11.48,41.67 22.37,83.5 33.69,125.21 1.56,-0.17 3.12,-0.32 4.68,-0.48 m -141.22,90.1 c -2.79,17.24 -4.19,35.36 1.54,52.18 4.49,14.85 15.87,27.46 30.25,33.32 17.52,7.41 37.49,7.68 55.83,3.42 2.36,-10.79 4.33,-21.77 4.05,-32.86 0.46,-13.61 -2.66,-27.78 -10.76,-38.93 -9.33,-13.16 -25.5,-19.89 -41.19,-21.09 -13.32,-1.25 -26.93,-0.01 -39.72,3.96 m 216.21,4.72 c -9.19,5.94 -16.4,14.96 -19.84,25.39 -6.78,18.81 -4.03,39.38 0.18,58.45 3.24,1.23 6.97,1.49 10.44,2.11 15.38,1.74 31.51,0.74 45.83,-5.58 14.12,-5.99 25.4,-18.41 29.79,-33.14 5.7,-16.73 4.41,-34.84 1.57,-52 -11.25,-4.04 -23.52,-4.75 -35.43,-4.43 -11.39,0.26 -22.75,3.3 -32.54,9.2 M 207.32,374.63 c -0.63,1.62 1.23,2.72 1.94,3.98 10.35,12.37 20.57,24.85 31.1,37.07 2.13,2.57 5.31,3.69 8.39,4.63 0.02,7.29 0.07,14.59 -0.02,21.89 1.2,1.49 3.4,1.27 4.96,0.49 -0.11,-7.37 0.12,-14.75 -0.13,-22.11 3.17,-1.27 6.57,-2.38 8.91,-5.07 10.56,-12.75 21.29,-25.39 31.82,-38.17 0.39,-0.84 1.75,-1.59 1.21,-2.63 -11.85,-3.73 -24.2,-5.3 -36.53,-5.99 -17.41,-0.68 -34.95,0.8 -51.65,5.91 z"
       id="path3822"
       inkscape:connector-curvature="0"
       style="opacity:1;fill:#ffffff" />
    <path
       d="m 338.16,265.5 c 7.82,-1.71 15.79,-3.46 23.9,-3.07 5.47,-0.09 10.8,1.22 16.25,1.36 1.37,8.2 1.68,16.63 0.76,24.89 -1.27,11.87 -6.34,23.92 -16.03,31.33 -8.47,5.98 -18.69,9.43 -29.05,9.73 -6.11,1.12 -12.26,0.08 -18.38,-0.34 -0.93,-7.32 -2.16,-14.62 -1.95,-22.03 4.66,4.34 10.95,6.89 17.36,6.48 11.03,0.35 21.19,-8.31 23.45,-18.94 0.52,-4.97 0.77,-10.27 -1.37,-14.91 -2.74,-6.32 -8.24,-11.28 -14.67,-13.67 -0.07,-0.21 -0.21,-0.62 -0.27,-0.83 z"
       id="path3824"
       inkscape:connector-curvature="0"
       style="opacity:1;fill:#ffffff" />
    <path
       d="m 127,263.41 c 8.51,-1.14 17.27,-1.07 25.67,0.68 2.3,0.97 5.77,0.44 7.39,2.38 -7.35,2.9 -13.64,8.96 -15.68,16.72 -2.49,8.13 -0.03,17.43 5.92,23.46 8.57,9.72 25.56,10.17 34.48,0.74 -0.23,7.47 -0.47,15.09 -2.26,22.3 -7.42,0.76 -15.06,1.07 -22.46,-0.13 -13.52,-1.48 -27.48,-8.17 -34.28,-20.46 -7.73,-13.47 -7.8,-29.56 -5.9,-44.5 2.18,-1.22 4.73,-0.95 7.12,-1.19 z"
       id="path3826"
       inkscape:connector-curvature="0"
       style="opacity:1;fill:#ffffff" />
  </g>
</svg>
